<?xml version="1.0" standalone="no"?>
<!DOCTYPE svg PUBLIC "-//W3C//DTD SVG 20010904//EN"
 "http://www.w3.org/TR/2001/REC-SVG-20010904/DTD/svg10.dtd">
<svg version="1.0" xmlns="http://www.w3.org/2000/svg"
 width="500.000000pt" height="500.000000pt" viewBox="0 0 500.000000 500.000000"
 preserveAspectRatio="xMidYMid meet">
<metadata>
Created by potrace 1.16, written by Peter Selinger 2001-2019
</metadata>
<g transform="translate(0.000000,500.000000) scale(0.100000,-0.100000)"
fill="#ffffff" stroke="none">
<path d="M2335 4285 c-52 -51 -17 -131 63 -142 31 -4 42 -10 42 -23 0 -13 -12
-19 -52 -23 -61 -8 -88 -28 -72 -55 12 -18 15 -18 127 -6 l67 7 0 -41 c0 -31
5 -44 19 -52 27 -14 51 12 51 56 0 32 2 34 33 34 71 -1 246 -50 291 -83 17
-12 17 -14 -1 -45 -14 -24 -15 -36 -7 -49 21 -34 35 -28 78 31 13 19 15 18 63
-16 69 -51 215 -211 202 -222 -2 -1 -19 -13 -36 -25 -36 -25 -41 -42 -18 -61
13 -11 23 -9 55 9 l38 21 32 -82 c30 -76 59 -201 60 -255 0 -21 -5 -23 -44
-23 -49 0 -61 -9 -51 -40 5 -16 15 -20 52 -20 l45 0 -6 -57 c-12 -98 -61 -256
-91 -291 -1 -2 -18 5 -38 14 -68 33 -97 -19 -32 -57 l35 -21 -18 -31 c-22 -40
-169 -187 -209 -209 l-31 -18 -21 35 c-38 65 -90 36 -57 -32 9 -20 13 -40 9
-44 -26 -26 -245 -89 -309 -89 -21 0 -24 5 -24 33 0 81 -62 89 -68 8 -3 -38
-5 -41 -31 -41 -16 0 -52 5 -81 10 -63 12 -90 6 -90 -20 0 -28 30 -40 132 -51
441 -50 857 242 969 678 66 260 3 558 -163 763 l-50 63 36 35 35 36 24 -22 23
-22 69 70 70 70 -70 70 -70 70 -70 -70 -69 -70 22 -22 22 -22 -36 -37 -36 -37
-61 49 c-103 83 -236 144 -378 173 -45 9 -65 18 -67 29 -3 12 4 17 21 17 100
0 150 95 80 150 -23 18 -41 20 -205 20 -177 0 -179 0 -203 -25z"/>
<path d="M2036 3859 c-31 -24 -34 -57 -7 -90 18 -23 26 -24 131 -24 105 0 113
1 131 24 27 33 24 66 -7 90 -23 18 -41 21 -124 21 -83 0 -101 -3 -124 -21z"/>
<path d="M1867 3628 c-9 -7 -19 -25 -22 -40 -5 -21 -1 -33 19 -52 25 -26 25
-26 209 -26 171 0 186 1 211 21 29 23 33 54 10 87 -15 21 -20 22 -213 22 -142
0 -202 -3 -214 -12z"/>
<path d="M2721 3425 c-118 -85 -227 -166 -242 -181 -74 -71 -22 -197 82 -197
21 0 49 7 63 16 21 14 311 405 343 463 11 19 10 25 -3 38 -8 9 -18 16 -22 16
-4 0 -103 -70 -221 -155z"/>
<path d="M1697 3392 c-22 -25 -21 -75 1 -95 16 -15 52 -17 295 -17 264 0 278
1 297 20 11 11 20 31 20 45 0 14 -9 34 -20 45 -19 19 -33 20 -298 20 -258 0
-280 -1 -295 -18z"/>
<path d="M1582 3170 c-31 -13 -46 -49 -33 -82 17 -45 54 -50 404 -46 l319 3
19 24 c27 33 24 66 -7 90 -26 20 -38 21 -353 20 -179 0 -336 -4 -349 -9z"/>
<path d="M1784 2936 c-52 -23 -54 -89 -4 -116 11 -6 112 -10 253 -10 231 0
234 0 255 23 27 29 28 57 3 88 -19 24 -21 24 -248 26 -177 2 -235 0 -259 -11z"/>
<path d="M1961 2684 c-12 -15 -21 -32 -21 -39 0 -7 9 -24 21 -39 20 -26 21
-26 165 -26 131 0 146 2 164 20 11 11 20 31 20 45 0 14 -9 34 -20 45 -18 18
-33 20 -164 20 -144 0 -145 0 -165 -26z"/>
<path d="M890 1980 l0 -90 80 0 80 0 0 -445 0 -445 115 0 115 0 0 445 0 445
80 0 80 0 0 90 0 90 -275 0 -275 0 0 -90z"/>
<path d="M1540 1535 l0 -535 115 0 115 0 0 535 0 535 -115 0 -115 0 0 -535z"/>
<path d="M1946 1848 c-3 -123 -8 -364 -12 -535 l-6 -313 85 0 84 0 6 173 c4
94 7 248 7 341 0 93 3 166 8 162 4 -4 34 -157 68 -339 l60 -332 75 -3 75 -3
60 342 c59 340 59 342 65 268 4 -41 7 -130 8 -199 0 -69 4 -189 8 -267 l6
-143 84 0 84 0 -6 178 c-3 97 -8 338 -11 535 l-6 358 -122 -3 -121 -3 -60
-292 c-33 -160 -63 -294 -66 -297 -3 -3 -29 121 -58 277 -29 155 -54 290 -57
300 -5 15 -20 17 -129 17 l-123 0 -6 -222z"/>
<path d="M2860 1535 l0 -535 240 0 240 0 0 80 0 80 -120 0 -120 0 0 160 0 160
90 0 90 0 0 80 0 80 -90 0 -90 0 0 135 0 135 120 0 120 0 0 80 0 80 -240 0
-240 0 0 -535z"/>
<path d="M3450 1536 l0 -536 120 0 120 0 0 241 0 240 33 -3 32 -3 58 -237 59
-238 119 0 c69 0 119 4 119 10 0 5 -31 120 -70 256 -38 136 -69 248 -67 249
32 16 80 65 98 102 21 41 24 63 24 158 0 126 -16 170 -81 223 -62 51 -125 63
-356 69 l-208 5 0 -536z m370 361 c55 -27 79 -149 44 -223 -21 -43 -38 -53
-114 -61 l-60 -6 0 152 0 151 53 0 c28 0 63 -6 77 -13z"/>
</g>
</svg>
